<?xml version="1.0" encoding="utf-8"?>
<!-- Generator: Adobe Illustrator 17.0.0, SVG Export Plug-In . SVG Version: 6.00 Build 0)  -->
<!DOCTYPE svg PUBLIC "-//W3C//DTD SVG 1.1//EN" "http://www.w3.org/Graphics/SVG/1.1/DTD/svg11.dtd">
<svg version="1.1" xmlns="http://www.w3.org/2000/svg" xmlns:xlink="http://www.w3.org/1999/xlink" x="0px" y="0px"
	 width="127.418px" height="107.546px" viewBox="0 0 127.418 107.546" enable-background="new 0 0 127.418 107.546"
	 xml:space="preserve">
<g id="圖層_1">
</g>
<g id="圖層_2">
	<g>
		<path fill="#13AE67" d="M12.834,98.297c0,0-20.464-13.845-9.644-33.452c9.298-16.849,27.798-8.661,49-13.699
			c40.681-9.665,30.918-30.993,51.298-31.543c16.25-0.439,27.583,21.537,16.136,48.297c-13.544,31.661-58.836,39.333-63.949,39.507
			C23.738,108.496,12.834,98.297,12.834,98.297z"/>
		<path fill="#13AE67" d="M12.834,98.297c0,0-1.104-0.725-2.937-2.379c-1.808-1.659-4.408-4.26-6.726-8.257
			c-1.121-2.006-2.178-4.366-2.726-7.097c-0.59-2.714-0.618-5.791,0.07-8.93c0.725-3.125,2.087-6.337,4.173-9.278
			c2.068-2.949,5.101-5.495,8.82-6.912c3.704-1.456,7.86-1.944,12.102-2.189c4.255-0.239,8.656-0.248,13.163-0.518
			c9.014-0.416,18.411-2.619,27.446-6.479c4.488-1.969,8.843-4.5,12.626-7.823c1.896-1.653,3.632-3.502,5.251-5.469
			c1.623-1.966,3.105-4.068,4.717-6.121c1.606-2.04,3.431-4.05,5.767-5.421c2.32-1.392,5.014-2.032,7.665-2.221
			c2.652-0.202,5.419,0.072,7.939,1.069c2.542,0.935,4.806,2.519,6.711,4.415c3.805,3.85,6.042,8.967,7.087,14.149
			c1.052,5.216,0.937,10.579,0.071,15.724c-0.428,2.577-1.041,5.111-1.836,7.572c-0.777,2.465-1.703,4.871-2.766,7.191
			c-2.181,4.65-5.089,8.849-8.45,12.503c-6.737,7.337-15.004,12.533-23.182,16.378c-8.218,3.836-16.449,6.39-24.17,8.045
			c-1.933,0.408-3.836,0.759-5.711,1.014c-1.875,0.308-3.738,0.22-5.53,0.263c-0.899,0.008-1.787,0.015-2.663,0.023
			c-0.876-0.027-1.74-0.055-2.592-0.081c-0.852-0.027-1.692-0.054-2.519-0.08c-0.825-0.063-1.638-0.125-2.437-0.186
			c-6.398-0.483-11.924-1.511-16.35-2.783c-4.433-1.26-7.753-2.768-9.888-3.999C13.812,99.196,12.834,98.297,12.834,98.297z
			 M12.834,98.297c0,0,0.981,0.895,3.132,2.108c2.139,1.223,5.462,2.718,9.896,3.961c4.426,1.256,9.951,2.263,16.344,2.723
			c0.799,0.058,1.611,0.117,2.435,0.177c0.826,0.023,1.665,0.047,2.515,0.071c0.851,0.024,1.714,0.048,2.588,0.072
			c0.876-0.011,1.763-0.021,2.662-0.032c1.8-0.048,3.646,0.033,5.507-0.294c1.866-0.271,3.762-0.638,5.687-1.062
			c7.689-1.719,15.876-4.342,24.022-8.234c8.106-3.899,16.266-9.139,22.85-16.443c3.285-3.632,6.11-7.806,8.207-12.369
			c1.044-2.299,1.947-4.673,2.704-7.106c0.775-2.427,1.369-4.924,1.78-7.457c0.833-5.058,0.922-10.312-0.121-15.386
			c-1.026-5.05-3.249-9.954-6.849-13.646c-1.811-1.814-3.952-3.323-6.351-4.214c-2.382-0.951-4.965-1.22-7.531-1.037
			c-2.56,0.175-5.098,0.776-7.274,2.072c-2.192,1.275-3.947,3.179-5.538,5.188c-1.594,2.016-3.095,4.129-4.747,6.118
			c-1.645,1.994-3.44,3.86-5.384,5.53c-3.885,3.356-8.331,5.886-12.882,7.837c-9.142,3.818-18.623,5.949-27.689,6.291
			c-4.524,0.231-8.927,0.202-13.17,0.404c-4.231,0.207-8.362,0.659-12.043,2.069c-1.834,0.7-3.532,1.645-5.009,2.809
			c-1.478,1.163-2.726,2.537-3.773,3.987c-2.088,2.925-3.45,6.11-4.184,9.221c-0.695,3.122-0.678,6.186-0.099,8.893
			c0.537,2.724,1.583,5.082,2.696,7.088c2.301,3.998,4.891,6.607,6.692,8.271C11.732,97.568,12.834,98.297,12.834,98.297z"/>
	</g>
	<g>
		<g>
			<path fill="#FFFFFF" d="M22.688,51.804c10.679,0.767,21.473,6.283,32.298,4.153c9.679-1.904,20.232-6.489,28.071-12.461
				c7.048-5.37,10.848-13.299,19.303-17.136c9.529-4.324,17.5,0.927,21.785,9.708c0.68,1.393,3.829,0.46,3.188-0.854
				c-3.614-7.407-9.033-12.809-17.624-12.842c-6.335-0.024-12.425,3.577-17.15,7.452c-4.379,3.591-7.278,8.596-11.618,12.207
				c-4.683,3.898-10.629,6.302-16.258,8.473c-6.963,2.685-13.084,4.004-20.59,2.843c-6.829-1.056-13.38-3.373-20.304-3.87
				C22.229,49.366,20.53,51.649,22.688,51.804L22.688,51.804z"/>
		</g>
	</g>
	<g>
		<g>
			<path fill="#13AE67" d="M69.86,53.409c6.881-5.674,10.298-15.693,15.176-22.974c3.161-4.718,4.902-10.476,5.054-16.152
				c0.169-6.285-6.859-12.448-12.391-13.761C68.093-1.758,53.593,3.518,53.233,14.6c-0.165,5.068,2.872,9.594,5.857,13.423
				c3.454,4.43,8.611,3.551,13.548,2.463c0.824-0.182,4.325-1.247,3.947-2.656c-0.39-1.456-3.916-0.509-4.746-0.326
				c-3.694,0.814-5.866-4.557-7.539-6.937c-2.221-3.16-2.821-7.608-1.997-11.305c1.222-5.483,7.349-6.24,11.57-4.04
				c4.113,2.144,8.12,8.229,7.445,12.979c-1.049,7.381-4.562,12.964-8.242,19.235c-3.159,5.383-6.226,12.44-11.125,16.479
				c-1.614,1.33,1.404,1.667,2.106,1.622C66.121,55.406,68.255,54.733,69.86,53.409L69.86,53.409z"/>
		</g>
	</g>
</g>
</svg>
