<?xml version="1.0" standalone="no"?>
<!DOCTYPE svg PUBLIC "-//W3C//DTD SVG 1.1//EN" "http://www.w3.org/Graphics/SVG/1.1/DTD/svg11.dtd" >
<svg xmlns="http://www.w3.org/2000/svg">
<metadata>Generated by IcoMoon</metadata>
<defs>
<font id="icomoon" horiz-adv-x="1024">
<font-face units-per-em="1024" ascent="960" descent="-64" />
<missing-glyph horiz-adv-x="1024" />
<glyph unicode="&#x20;" d="" horiz-adv-x="512" />
<glyph unicode="&#xe600;" d="M791.488 415.904c-1.28 129.696 105.76 191.872 110.528 194.976-60.16 88.032-153.856 100.064-187.232 101.472-79.744 8.064-155.584-46.944-196.064-46.944-40.352 0-102.816 45.76-168.96 44.544-86.912-1.28-167.072-50.528-211.808-128.384-90.304-156.704-23.136-388.832 64.896-515.936 43.008-62.208 94.304-132.064 161.632-129.568 64.832 2.592 89.376 41.952 167.744 41.952s100.416-41.952 169.056-40.672c69.76 1.312 113.984 63.392 156.704 125.792 49.376 72.16 69.728 142.048 70.912 145.632-1.536 0.704-136.064 52.224-137.408 207.136zM662.56 796.48c35.744 43.36 59.872 103.52 53.28 163.52-51.488-2.112-113.888-34.304-150.816-77.536-33.152-38.368-62.144-99.616-54.368-158.432 57.472-4.48 116.128 29.216 151.904 72.448z" />
<glyph unicode="&#xe601;" d="M665.824 632.96l-64.96 64.928-324.8-324.736c-53.824-53.792-53.824-141.056 0-194.848s141.056-53.792 194.88 0l389.76 389.696c89.728 89.664 89.728 235.072 0 324.736-89.664 89.696-235.104 89.696-324.768 0l-409.216-409.184c-0.288-0.288-0.608-0.576-0.864-0.832-125.088-125.088-125.088-327.84 0-452.896 125.056-125.056 327.872-125.056 452.992 0 0.288 0.288 0.512 0.576 0.832 0.864l0.032-0.032 279.328 279.296-64.992 64.928-279.328-279.264c-0.288-0.256-0.576-0.576-0.832-0.832-89.088-89.056-233.984-89.056-323.072 0-89.056 89.056-89.056 233.92 0 322.976 0.32 0.288 0.608 0.576 0.896 0.832l-0.032 0.064 409.28 409.152c53.696 53.728 141.152 53.728 194.88 0s53.696-141.152 0-194.848l-389.76-389.696c-17.92-17.92-47.040-17.92-64.96 0-17.888 17.888-17.888 47.040 0 64.928l324.8 324.768z" />
<glyph unicode="&#xe602;" d="M599.040 643.153c-33.496-14.067-62.114-22.312-98.169-10.429-4.689 1.536-37.133 25.627-40.61 28.968-31.582 30.451-28.888 43.385-33.549 88.253-4.473 43.062 16.141 75.129 51.065 97.819 41.849 27.217 88.118 36.999 137.512 28.322 50.742-8.893 99.813-54.784 105.122-101.053 2.237-19.429 0.216-40.691-5.524-59.392-8.488-27.621-21.773-53.814-33.523-80.384-3.18-7.195-8.219-13.581-9.917-22.016 8.812 11.399 17.462 22.932 26.516 34.169 10.294 12.8 20.561 25.627 31.475 37.888 42.846 48.128 127.569 52.547 179.092 18.324 2.156-1.428 3.988-3.315 5.982-5.012-90.543 11.884-154.139-33.388-209.758-94.989-26.328-29.157-51.146-59.338-84.211-81.758-10.105-6.872-15.872-20.13-23.633-30.451 1.213-1.374 2.398-2.776 3.584-4.15 22.124 14.74 46.134 27.352 65.967 44.733 28.052 24.576 53.275 52.413 79.306 79.252 26.678 27.513 55.377 51.847 92.995 63.084 60.847 18.189 127.569-17.058 146.675-77.716 20.992-66.749 15.818-133.309-1.913-199.842-29.615-111.185-97.28-193.805-192.216-255.461-100.379-65.186-210.998-104.34-328.92-121.371-36.244-5.228-73.917-2.668-110.781-0.781-61.709 3.18-122.449 13.016-180.709 35.005-63.515 23.983-111.724 65.832-146.675 123.85-61.602 102.265-1.859 255.299 136.461 271.737 59.392 7.060 115.011-2.344 171.574-15.603 46.080-10.806 92.106-9.593 138.213 2.722 21.962 5.875 36.595 18.782 51.712 39.64-63.030-25.25-123.958-36.379-187.742-18.405 10.887 1.455 21.8 2.803 32.66 4.419 59.985 8.92 117.706 25.627 172.733 51.146 5.524 2.56 11.668 6.548 14.525 11.587 24.172 42.442 49.017 84.588 70.791 128.243 11.048 22.178 18.297 46.835 23.552 71.168 11.399 53.032-34.142 114.149-87.875 120.589-32.067 3.853-58.179-15.522-62.464-47.454-4.123-30.801 0.108-60.093 18.675-86.205 9.243-12.989 14.929-29.13 27.109-39.424 9.459-8.003 16.007-8.947 31.178-12.207 14.471-3.099 14.471-3.099 21.639-3.449 3.368-0.162 14.525 1.913 14.767-0.485z" />
<glyph unicode="&#xe603;" d="M192-64h640l64 704h-768zM640 832v128h-256v-128h-320v-192l64 64h768l64-64v192h-320zM576 832h-128v64h128v-64z" />
<glyph unicode="&#xe604;" d="M199.111 789.333h-170.667c-15.644 0-28.444-12.8-28.444-28.444v-625.778c0-15.644 12.8-28.444 28.444-28.444h170.667c15.644 0 28.444 12.8 28.444 28.444v625.778c0 15.644-12.8 28.444-28.444 28.444zM170.667 618.667h-113.778v56.889h113.778v-56.889zM483.556 789.333h-170.667c-15.644 0-28.444-12.8-28.444-28.444v-625.778c0-15.644 12.8-28.444 28.444-28.444h170.667c15.644 0 28.444 12.8 28.444 28.444v625.778c0 15.644-12.8 28.444-28.444 28.444zM455.111 618.667h-113.778v56.889h113.778v-56.889zM680.078 745.358l-152.405-76.8c-13.966-7.026-19.655-24.235-12.601-38.201l255.972-508.046c7.026-13.966 24.235-19.655 38.201-12.601l152.405 76.8c13.966 7.026 19.655 24.235 12.601 38.201l-255.972 508.046c-7.026 13.966-24.235 19.655-38.201 12.601zM824.889 135.111c0-15.701-12.743-28.444-28.444-28.444s-28.444 12.743-28.444 28.444c0 15.701 12.743 28.444 28.444 28.444s28.444-12.743 28.444-28.444z" />
<glyph unicode="&#xe605;" d="M512 896c282.784 0 512-186.24 512-416s-229.216-416-512-416c-27.168 0-53.824 1.728-79.84 5.056-109.984-109.984-241.248-129.696-368.16-132.608v26.912c68.544 33.568 128 94.752 128 164.64 0 9.76-0.768 19.328-2.176 28.704-115.808 76.256-189.824 192.768-189.824 323.296 0 229.76 229.216 416 512 416z" />
<glyph unicode="&#xe606;" d="M967.111 102.087c0-40.448 23.125-75.463 56.889-92.615v-14.165c-9.444-1.28-19.086-1.991-28.9-1.991-60.444 0-114.972 25.372-153.543 66.020-23.296-6.201-48.014-9.557-73.586-9.557-141.397 0-256 101.888-256 227.556s114.603 227.556 256 227.556c141.397 0 256-101.888 256-227.556 0-49.209-17.579-94.748-47.417-131.982-6.059-13.17-9.472-27.847-9.472-43.292zM455.111 903.111c247.524 0 448.882-160.54 454.969-360.448-43.719 19.484-92.075 29.781-142.080 29.781-84.935 0-165.177-29.724-225.906-83.712-62.976-55.979-97.65-131.044-97.65-211.399 0-39.708 8.476-78.137 24.661-113.579-4.636-0.114-9.301-0.199-13.995-0.199-24.149 0-47.844 1.536-70.969 4.494-97.764-97.764-214.443-115.285-327.253-117.874v23.922c60.928 29.838 113.778 84.224 113.778 146.347 0 8.676-0.683 17.18-1.934 25.515-102.94 67.783-168.732 171.349-168.732 287.374 0 204.231 203.748 369.778 455.111 369.778z" />
<glyph unicode="&#xe607;" d="M426.667 903.111v0c235.634 0 426.667-154.596 426.667-345.287s-191.033-345.287-426.667-345.287c-22.642 0-44.828 1.451-66.532 4.181-91.648-91.278-197.49-107.662-303.246-110.052v22.329c57.116 27.876 103.111 78.649 103.111 136.647 0 8.107-0.626 16.043-1.792 23.808-96.484 63.289-158.208 160-158.208 268.345 0 190.692 191.033 345.287 426.667 345.287zM885.333 129.166c0-49.721 32.284-93.241 81.778-117.134v-19.143c-91.676 2.048-175.815 16.1-255.232 94.322-18.802-2.361-38.030-3.584-57.657-3.584-84.85 0-163.044 22.898-225.422 61.355 128.597 0.455 249.998 41.643 342.073 116.167 46.393 37.547 83.029 81.636 108.8 130.987 27.335 52.338 41.216 108.060 41.216 165.689 0 9.273-0.398 18.517-1.109 27.705 64.512-53.276 104.22-125.895 104.22-205.938 0-92.871-53.476-175.758-137.102-230.002-1.024-6.656-1.564-13.483-1.564-20.423z" />
<glyph unicode="&#xe608;" d="M967.111 102.087c0-40.448 23.125-75.463 56.889-92.615v-14.165c-9.444-1.28-19.086-1.991-28.9-1.991-60.444 0-114.972 25.372-153.543 66.020-23.296-6.201-48.014-9.557-73.586-9.557-141.397 0-256 101.888-256 227.556s114.603 227.556 256 227.556c141.397 0 256-101.888 256-227.556 0-49.209-17.579-94.748-47.417-131.982-6.059-13.17-9.472-27.847-9.472-43.292zM205.056 706.503c-58.852-47.815-91.278-109.312-91.278-173.17 0-35.812 9.956-70.571 29.554-103.253 20.224-33.707 50.66-64.512 87.979-89.116 26.994-17.778 45.141-46.165 49.92-78.137 1.593-10.667 2.588-21.419 2.987-32.114 6.628 5.518 13.113 11.406 19.456 17.749 21.476 21.476 50.46 33.337 80.441 33.337 4.779 0 9.557-0.313 14.364-0.91 18.631-2.361 37.632-3.556 56.519-3.584v-113.778c-24.121 0-47.787 1.536-70.884 4.494-97.764-97.764-214.443-115.285-327.253-117.874v23.922c60.928 29.838 113.778 84.224 113.778 146.347 0 8.676-0.683 17.18-1.934 25.515-102.94 67.783-168.732 171.349-168.732 287.374 0 204.231 203.748 369.778 455.111 369.778 247.524 0 448.882-160.54 454.969-360.448-36.523 16.27-76.316 26.14-117.561 28.956-10.24 49.835-40.363 96.74-87.324 134.884-31.403 25.515-68.38 45.682-109.881 59.961-44.174 15.189-91.335 22.869-140.174 22.869s-96-7.708-140.174-22.869c-41.529-14.279-78.507-34.446-109.881-59.961z" />
<glyph unicode="&#xe609;" d="M508 900q92.992 0.992 175.008-34.016t144-95.008 98.016-141.504 36.992-174.496q0.992-88-30.496-166.016t-87.488-137.504-131.008-98.496-162.016-48q-23.008-3.008-48.512-5.504t-56.512-3.488-69.504 0-86.496 7.008q-107.008 10.016-158.496 26.496t-41.504 18.496q54.016 8.992 92.992 28.992 20.992 12 17.504 32.992t-20.512 39.008q-52 56.992-84.512 133.504t-34.496 164.512q-0.992 92.992 34.016 175.008t95.488 143.488 142.496 97.504 175.008 36.992zM708 448.992q0-27.008 18.016-45.504t44.992-18.496 46.016 18.496 19.008 45.504-19.008 45.504-46.016 18.496-44.992-18.496-18.016-45.504zM451.008 448.992q0-27.008 19.008-46.496t46.016-19.488q28 0 47.008 19.488t19.008 46.496q0 28-19.008 47.008t-47.008 19.008q-27.008 0-46.016-19.008t-19.008-47.008zM196.992 449.984q0-27.008 18.496-46.016t45.504-19.008q28 0 47.008 19.008t19.008 46.016-19.008 46.016-47.008 19.008q-27.008 0-45.504-19.008t-18.496-46.016z" />
<glyph unicode="&#xe60a;" d="M1024 448c0 282.784-229.216 512-512 512s-512-229.216-512-512 229.216-512 512-512 512 229.216 512 512zM96 448c0 229.76 186.24 416 416 416s416-186.24 416-416-186.24-416-416-416-416 186.24-416 416zM317.248 605.248l-90.528-90.528 285.248-285.248 285.248 285.248-90.496 90.496-194.752-194.752z" />
<glyph unicode="&#xe60b;" d="M512-64c282.784 0 512 229.216 512 512s-229.216 512-512 512-512-229.216-512-512 229.216-512 512-512zM512 864c229.76 0 416-186.24 416-416s-186.24-416-416-416-416 186.24-416 416 186.24 416 416 416zM669.248 642.752l-90.528 90.528-285.248-285.248 285.248-285.248 90.496 90.496-194.752 194.752z" />
<glyph unicode="&#xe60c;" d="M512 960c-282.784 0-512-229.216-512-512s229.216-512 512-512 512 229.216 512 512-229.216 512-512 512zM512 32c-229.76 0-416 186.24-416 416s186.24 416 416 416 416-186.24 416-416-186.24-416-416-416zM354.752 253.248l90.528-90.528 285.248 285.248-285.248 285.248-90.496-90.496 194.752-194.752z" />
<glyph unicode="&#xe60d;" d="M0 448c0-282.784 229.216-512 512-512s512 229.216 512 512-229.216 512-512 512-512-229.216-512-512zM928 448c0-229.76-186.24-416-416-416s-416 186.24-416 416 186.24 416 416 416 416-186.24 416-416zM706.752 290.752l90.528 90.528-285.248 285.248-285.248-285.248 90.496-90.496 194.752 194.752z" />
<glyph unicode="&#xe60e;" d="M658.752 210.752l-210.752 210.752v282.496h128v-229.504l173.248-173.248zM512 960c-282.784 0-512-229.216-512-512s229.216-512 512-512 512 229.216 512 512-229.216 512-512 512zM512 64c-212.064 0-384 171.936-384 384s171.936 384 384 384c212.064 0 384-171.936 384-384s-171.936-384-384-384z" />
<glyph unicode="&#xe60f;" d="M512 960c-282.784 0-512-229.216-512-512s229.216-512 512-512 512 229.216 512 512-229.216 512-512 512zM658.752 210.752l-210.752 210.752v282.496h128v-229.504l173.248-173.248-90.528-90.528z" />
<glyph unicode="&#xe610;" d="M892.256 445.504c2.432 11.104 3.744 22.656 3.744 34.496 0 88.352-71.648 160-160 160-14.24 0-28-1.856-41.12-5.344-24.8 77.344-97.28 133.344-182.88 133.344-87.36 0-161.056-58.336-184.32-138.176-22.752 6.624-46.784 10.176-71.68 10.176-141.376 0-256-114.624-256-256s114.624-256 256-256h608c88.352 0 160 71.648 160 160 0 78.72-56.864 144.16-131.744 157.504zM416 192l-160 160 64 64 96-96 224 224 64-64-288-288z" />
<glyph unicode="&#xe611;" d="M828.992 65.984h-639.008q-52.992 0-90.496 37.504t-37.504 90.496v159.008q0 14.016 9.504 23.008t22.496 8.992h64q12.992 0 22.496-8.992t9.504-23.008v-95.008q0-27.008 19.008-45.504t44.992-18.496h511.008q27.008 0 45.504 18.496t18.496 45.504v95.008q0 14.016 9.504 23.008t22.496 8.992h64q12.992 0 22.496-8.992t9.504-23.008v-159.008q0-52.992-37.504-90.496t-90.496-37.504zM250.016 692q10.016 10.016 23.488 10.016t23.488-10.016l148.992-148v320.992q0 12.992 8.992 22.496t23.008 9.504h64q12.992 0 22.016-9.504t8.992-22.496v-320.992l148.992 148q10.016 10.016 24 10.016t23.008-10.016l47.008-46.016q10.016-10.016 10.016-23.488t-10.016-23.488l-264-264q-0.992-0.992-6.496-4t-16-6.496-19.488-3.488-20 3.488-16.512 6.496-6.496 4l-264 264q-10.016 10.016-10.016 23.488t10.016 23.488z" />
<glyph unicode="&#xe612;" d="M512 960c-282.784 0-512-229.216-512-512s229.216-512 512-512 512 229.216 512 512-229.216 512-512 512zM512 0c-62.944 0-122.88 13.024-177.216 36.448l233.152 262.304c5.216 5.856 8.096 13.408 8.096 21.248v96c0 17.664-14.336 32-32 32-112.992 0-232.192 117.472-233.376 118.624-6.016 6.016-14.144 9.376-22.624 9.376h-128c-17.664 0-32-14.336-32-32v-192c0-12.128 6.848-23.2 17.696-28.608l110.304-55.168v-187.872c-116.064 80.96-192 215.424-192 367.648 0 68.704 15.488 133.792 43.136 192h116.864c8.48 0 16.64 3.36 22.624 9.376l128 128c6.016 6.016 9.376 14.144 9.376 22.624v77.408c40.576 12.064 83.52 18.592 128 18.592 70.4 0 136.992-16.256 196.288-45.184-4.16-3.488-8.192-7.168-12.032-11.040-36.256-36.256-56.224-84.48-56.224-135.776s19.968-99.488 56.224-135.776c36.448-36.448 85.216-56.256 135.648-56.256 3.168 0 6.336 0.064 9.504 0.224 13.824-51.808 38.752-186.656-8.416-372.32-0.448-1.76-0.704-3.488-0.832-5.216-81.312-83.072-194.688-134.656-320.128-134.656z" />
<glyph unicode="&#xe613;" d="M576 224l96-96 320 320-320 320-96-96 224-224zM448 672l-96 96-320-320 320-320 96 96-224 224z" />
<glyph unicode="&#xe614;" d="M665.6 268.8l76.8-76.8 256 256-256 256-76.8-76.8 179.2-179.2zM358.4 627.2l-76.8 76.8-256-256 256-256 76.8 76.8-179.2 179.2zM561.050 737.178l55.578-15.155-153.6-563.226-55.578 15.155 153.6 563.226z" />
<glyph unicode="&#xe615;" d="M1024 960v-416l-160 160-192-192-96 96 192 192-160 160zM448 288l-192-192 160-160h-416v416l160-160 192 192z" />
<glyph unicode="&#xe616;" d="M136.288 209.056c-75.2 0-136.288-61.344-136.288-136.064 0-75.168 61.088-135.808 136.288-135.808 75.456 0 136.48 60.64 136.48 135.808 0 74.752-61.024 136.064-136.48 136.064zM0.16 612.064v-196.256c127.776 0 247.968-49.984 338.464-140.512 90.4-90.304 140.288-211.040 140.288-339.296h197.12c0 372.832-303.296 676.064-675.872 676.064zM0.384 960v-196.352c455.776 0 826.752-371.328 826.752-827.648h196.864c0 564.48-459.264 1024-1023.616 1024z" />
<glyph unicode="&#xe617;" d="M853.344 960h-682.656c-93.888 0-170.688-76.8-170.688-170.688v-682.624c0-93.92 76.8-170.688 170.688-170.688h682.656c93.888 0 170.656 76.736 170.656 170.688v682.624c0 93.888-76.768 170.688-170.656 170.688zM278.944 128.736c-47.968 0-86.944 38.688-86.944 86.624 0 47.68 38.976 86.816 86.944 86.816 48.16 0 87.072-39.136 87.072-86.816 0-47.936-38.912-86.624-87.072-86.624zM497.472 128c0 81.824-31.808 158.816-89.472 216.448-57.728 57.76-134.368 89.632-215.904 89.632v125.184c237.664 0 431.136-193.44 431.136-431.264h-125.76zM719.616 128c0 291.072-236.672 527.936-527.36 527.936v125.248c360 0 652.96-293.12 652.96-653.184h-125.568z" />
<glyph unicode="&#xe618;" d="M512 960c-282.784 0-512-229.216-512-512s229.216-512 512-512 512 229.216 512 512-229.216 512-512 512zM320 192c-35.36 0-64 28.64-64 64s28.64 64 64 64 64-28.64 64-64-28.64-64-64-64zM496 192c0 132.352-107.648 240-240 240v96c185.28 0 336-150.72 336-336h-96zM688 192c0 115.392-44.928 223.872-126.528 305.472s-190.080 126.528-305.472 126.528v96c141.024 0 273.632-54.912 373.344-154.656s154.656-232.32 154.656-373.344h-96z" />
<glyph unicode="&#xe619;" d="M0 832v-768h1024v768h-1024zM192 128h-128v128h128v-128zM192 384h-128v128h128v-128zM192 640h-128v128h128v-128zM768 128h-512v640h512v-640zM960 128h-128v128h128v-128zM960 384h-128v128h128v-128zM960 640h-128v128h128v-128zM384 640v-384l256 192z" />
<glyph unicode="&#xe61a;" d="M832 0l192 512h-832l-192-512zM128 576l-128-576v832h288l128-128h416v-128z" />
<glyph unicode="&#xe61b;" d="M1024 211.008q0-24.992-8.512-47.488t-24-40.992-36.512-30.496-46.016-16v-2.016h-687.008q-2.016 0-2.496-0.512t-2.496-0.512-3.008 0.512-3.008 0.512h-6.016v0.992q-43.008 2.016-80.512 19.488t-64.992 46.496-43.488 67.488-16 81.504 16 80.992 43.008 66.496 63.488 47.008 78.496 21.504q7.008 67.008 36.512 124.992t76 100.992 107.008 67.488 129.504 24.512q72.992 0 137.504-27.488t112-76 75.008-112.512 27.488-136q0-32.992-6.016-64.512t-16.992-59.488q2.016 0 4.512 0.512t4.512 0.512q28 0 52.992-11.008t43.008-29.504 28.992-43.488 11.008-54.016zM687.008 363.008q12 20 7.008 23.488t-24.992 3.488q-12.992 0-35.008 0.512t-32.992 0.512q-16 0-20.992 12.992t-4.992 36.992q0 32.992-0.512 52.992t-0.512 43.008q0 27.008-3.488 39.008t-28.512 12q-19.008 0-28-0.512t-26.016-0.512q-27.008 0-34.016-15.488t-7.008-31.488v-32.992q0-12.992 0.992-24.992t0.992-26.016v-30.016q0-16-4.512-24.512t-19.488-8.512q-6.016-0.992-16.992-0.992l-22.016-2.016h-38.016q-20.992 0-25.504-13.504t13.504-33.504q16.992-22.016 36.992-47.008t39.488-50.496 37.504-49.504 32.992-42.016q28-31.008 54.016 0.992 15.008 18.016 35.488 45.504t42.016 57.504 40.992 58.496 31.488 46.496z" />
<glyph unicode="&#xe61c;" d="M755.2 896c-107.616 0-200.256-87.552-243.168-179.008-42.944 91.456-135.584 179.008-243.232 179.008-148.384 0-268.8-120.448-268.8-268.832 0-301.856 304.512-380.992 512.032-679.424 196.16 296.576 511.968 387.2 511.968 679.424 0 148.384-120.416 268.832-268.8 268.832z" />
<glyph unicode="&#xe61d;" d="M1000.992 464.992q22.016-20 23.008-44.512t-16-41.504q-20-16.992-45.504-16t-40.512 14.016q-6.016 4-32 28.992t-62.016 59.008-77.504 73.504-78.496 74.496-63.488 60.512-34.496 31.488q-32 30.016-64 28.992t-63.008-28.992q-10.016-8.992-38.016-35.008t-64.992-60.992-78.016-72.992-75.488-70.496-60-55.488-30.496-28q-15.008-12-40.512-12.992t-44.512 16q-20 18.016-19.008 44t16.992 42.016q6.016 6.016 38.016 35.488t76 70.496 94.496 88 94.016 88 75.008 70.016 36.512 35.008q39.008 36.992 84 38.016t76.992-30.016q6.016-4.992 25.504-24t47.488-46.016 63.008-60.992 70.496-68.512 70.016-68 63.008-60.992 48.512-46.496zM447.008 613.984q26.016 23.008 62.016 24.992t64-24.992q3.008-3.008 19.008-18.016l39.008-35.008q22.016-22.016 50.496-48.512t57.504-53.504q68.992-63.008 154.016-142.016v-195.008q0-22.016-16.992-39.488t-46.016-18.496h-192.992v159.008q0 34.016-32 34.016h-195.008q-18.016 0-24.512-10.496t-6.496-23.488q0-6.016-0.512-31.488t-0.512-53.504v-74.016h-188q-28.992 0-46.496 13.504t-17.504 37.504v204q84 76.992 152 139.008 28.992 27.008 57.504 52.992t52.512 47.488 39.488 36.512 19.488 19.008z" />
<glyph unicode="&#xe61e;" d="M903.111 845.34q55.125 0 88.434-27.989t33.337-85.788v-504.889q0-24.007-8.903-46.222t-24.889-38.229-37.348-25.771-45.34-9.785h-793.771q-24.007 0-44.885 8.903t-36.437 24.007-24.434 35.1-8.903 43.122v516.437q0 48.896 30.236 80.014t84.452 31.118h788.452zM256 677.319q-17.778 0-33.337-6.229t-27.108-17.778-18.66-27.563-7.111-34.219 7.111-33.792 18.66-27.108 27.108-18.233 33.337-6.656q18.66 0 34.674 6.656t27.563 18.233 18.233 27.108 6.656 34.219q0 37.348-24.434 61.326t-62.663 24.007zM399.104 362.667q0 16.896-7.111 32.882t-18.233 27.563-27.108 18.233-33.792 6.656h-113.778q-35.556 0-59.989-24.889t-24.434-60.444v-86.215h284.444v86.215zM821.333 271.986q17.778 0 26.681 9.33t8.903 22.215-10.212 22.215-27.989 9.33h-272.014q-17.778 0-27.108-9.33t-9.33-22.215 9.33-22.215 26.226-9.33h275.57zM822.215 389.319q17.778 0 26.226 9.33t8.448 21.788q0 14.222-7.993 23.125t-25.771 8.903h-279.125q-17.778 0-26.226-8.903t-8.448-23.125q0-12.459 7.993-21.788t25.771-9.33h279.125zM823.125 505.771q13.34 0 23.552 8.903t10.212 21.788-10.212 20.452-23.552 7.566h-184.889q-14.222 0-23.552-7.566t-9.33-20.452 9.33-21.788 23.552-8.903h184.889z" />
<glyph unicode="&#xe61f;" d="M959.872 832c0.032-0.032 0.096-0.064 0.128-0.128v-767.776c-0.032-0.032-0.064-0.096-0.128-0.128h-895.776c-0.032 0.032-0.096 0.064-0.128 0.128v767.776c0.032 0.032 0.064 0.096 0.128 0.128h895.776zM960 896h-896c-35.2 0-64-28.8-64-64v-768c0-35.2 28.8-64 64-64h896c35.2 0 64 28.8 64 64v768c0 35.2-28.8 64-64 64v0zM832 672c0-53.024-42.976-96-96-96s-96 42.976-96 96 42.976 96 96 96 96-42.976 96-96zM896 128h-768v128l224 384 256-320h64l224 192z" />
<glyph unicode="&#xe620;" d="M440.224 324.224c-13.312 0-26.624 5.088-36.768 15.232-95.136 95.136-95.136 249.92 0 345.056l192 192c46.080 46.080 107.36 71.456 172.544 71.456s126.432-25.376 172.544-71.456c95.136-95.136 95.136-249.92 0-345.056l-87.776-87.776c-20.32-20.32-53.216-20.32-73.536 0s-20.32 53.216 0 73.536l87.776 87.776c54.592 54.592 54.592 143.392 0 197.984-26.432 26.432-61.6 40.992-99.008 40.992s-72.544-14.56-99.008-40.992l-192-192c-54.592-54.592-54.592-143.392 0-197.984 20.32-20.32 20.32-53.216 0-73.536-10.144-10.144-23.456-15.232-36.768-15.232zM256-52c-65.184 0-126.464 25.376-172.544 71.456-95.136 95.136-95.136 249.92 0 345.056l87.776 87.776c20.32 20.32 53.248 20.32 73.536 0s20.32-53.216 0-73.536l-87.776-87.776c-54.592-54.592-54.592-143.392 0-197.984 26.432-26.432 61.6-40.992 99.008-40.992s72.544 14.56 99.008 40.992l192 192c54.592 54.592 54.592 143.392 0 197.984-20.32 20.32-20.32 53.216 0 73.536s53.216 20.32 73.536 0c95.136-95.136 95.136-249.92 0-345.056l-192-192c-46.080-46.080-107.36-71.456-172.544-71.456z" />
<glyph unicode="&#xe621;" d="M32 512.512q0 185.344 140.288 316.416t336.896 131.072 336.896-131.072 140.288-316.416q0-20.48-2.048-39.936l-10.24-196.608-300.032 24.576 8.192 197.632q2.048 6.144 2.048 14.336 0 67.584-51.2 115.712t-122.88 48.128-123.904-48.128-52.224-116.736q0-5.12 2.048-13.312l10.24-198.656-302.080-23.552-10.24 195.584q-2.048 20.48-2.048 39.936zM55.552 158.208l300.032 25.6 18.432-191.488q2.048-14.336-8.192-24.576t-23.552-11.264l-230.4-18.432q-15.36-2.048-26.624 7.168t-11.264 22.528zM644.352-7.68l17.408 191.488 302.080-25.6-17.408-190.464q-2.048-13.312-13.312-22.528t-25.6-7.168l-231.424 18.432q-14.336 1.024-23.552 11.264t-8.192 24.576z" />
<glyph unicode="&#xe622;" d="M151.008 528.992q36.992 0 57.504-24t20.512-52v-11.008q0-35.008-17.504-59.008t-59.488-24h-8q-39.008 0-62.016 21.504t-23.008 59.488v14.016q0 12.992 6.016 26.496t16 24.512 25.504 17.504 33.504 6.496h11.008zM519.008 528.992q38.016 0 58.496-24t20.512-52v-11.008q0-35.008-18.016-59.008t-60-24h-7.008q-39.008 0-62.016 21.504t-23.008 59.488v14.016q0 12.992 5.504 26.496t16 24.512 25.504 17.504 34.016 6.496h10.016zM888 528.992q38.016 0 58.496-24t20.512-52v-11.008q0-35.008-18.016-59.008t-60-24h-7.008q-39.008 0-62.016 21.504t-23.008 59.488v14.016q0 12.992 5.504 26.496t15.488 24.512 25.504 17.504 34.496 6.496h10.016z" />
<glyph unicode="&#xe623;" d="M960 960h64v-736c0-88.352-100.288-160-224-160s-224 71.648-224 160c0 88.352 100.288 160 224 160 62.688 0 119.328-18.4 160-48.032v368.032l-512-113.792v-494.208c0-88.352-100.288-160-224-160s-224 71.648-224 160c0 88.352 100.288 160 224 160 62.688 0 119.328-18.4 160-48.032v624.032l576 128z" />
<glyph unicode="&#xe624;" d="M864 960c88.352 0 160-71.648 160-160 0-36.032-11.904-69.248-32-96l-64-64-224 224 64 64c26.752 20.096 59.968 32 96 32zM64 224l-64-288 288 64 592 592-224 224-592-592zM715.584 596.416l-448-448-55.168 55.168 448 448 55.168-55.168z" />
<glyph unicode="&#xe625;" d="M879.008 179.008q4-15.008 7.008-36.992t3.008-44.512-3.488-42.496-11.488-30.016q-4.992-7.008-26.016-13.504t-52.512-12.512-70.496-11.008-78.016-8.512-75.488-4.992-64.512-1.504-64 2.016-74.496 4.992-76.512 7.008-69.504 9.504-53.504 10.016-27.008 9.504q-8.992 7.008-14.016 45.504t4 99.488q4.992 35.008 28 53.504t53.504 28.992 63.488 19.008 58.016 24.512q19.008 12.992 30.016 24t15.488 22.496 4.512 23.488-0.992 28q-2.016 22.016-15.008 34.496t-28 25.504q-8 6.016-13.504 18.016t-11.488 24q-4.992 12.992-8.992 30.016-2.016 2.016-6.016 7.008-3.008 4.992-7.008 13.504t-8.992 24.992-7.008 29.504 0.992 22.016q0.992 11.008 4.992 19.008 0 36 4 72 4 30.016 12.992 64.512t30.016 62.496q18.016 26.016 39.488 42.496t44.512 26.016 46.496 12.992 45.504 3.488q23.008-2.016 38.016-5.504t24.512-8.512 16-12.512 13.504-14.496h19.008q10.016 0 18.496-2.496t17.504-9.504 19.008-20.992q23.008-30.016 34.496-66.496t16.512-69.504q4.992-38.016 6.016-75.008 2.016-4.992 3.008-12t1.504-17.504-1.504-25.504q-2.016-20-6.016-32t-8.992-18.016q-4.992-7.008-11.008-10.016-4.992-16.992-10.016-30.016-4.992-12-10.496-24t-13.504-18.016q-18.016-14.016-28.992-24t-15.008-32.992q-3.008-15.008-2.016-28.992t7.488-28.992 21.504-28.512 40.992-23.488q24-8.992 52-16.992t54.016-17.504 46.496-24.992 29.504-39.488zM550.016 212q3.008 7.008 0.512 13.504t-7.488 12.512-12.992 12.992h-47.008q-7.008-7.008-11.008-12.992-4-4.992-6.496-11.008t0.512-11.008q7.008-15.008 12-25.504t11.008-16.512q-2.016-10.016-6.016-26.496t-7.488-34.496-6.016-34.016-2.496-24q0-4.992 4.512-12.512t10.496-15.008 12.992-12.512 12-4.992 12 4.992 14.016 11.488 11.488 14.496 4.512 12.992q0 6.016-3.008 20.992t-6.496 32.992-8 35.488-7.488 28.512q6.016 4.992 12 14.496t14.016 25.504z" />
<glyph unicode="&#xe626;" d="M976 960h-384c-26.4 0-63.264-15.264-81.952-33.952l-476.128-476.128c-18.656-18.656-18.656-49.216 0-67.872l412.128-412.128c18.656-18.656 49.216-18.656 67.872 0l476.128 476.128c18.656 18.656 33.952 55.552 33.952 81.952v384c0 26.4-21.6 48-48 48zM736 576c-53.024 0-96 42.976-96 96s42.976 96 96 96 96-42.976 96-96-42.976-96-96-96z" />
<glyph unicode="&#xe627;" d="M985.6 857.6h-307.2c-21.12 0-50.611-12.211-65.562-27.162l-380.902-380.902c-14.925-14.925-14.925-39.373 0-54.298l329.702-329.702c14.925-14.925 39.373-14.925 54.298 0l380.902 380.902c14.925 14.925 27.162 44.442 27.162 65.562v307.2c0 21.12-17.28 38.4-38.4 38.4zM793.6 550.4c-42.419 0-76.8 34.381-76.8 76.8s34.381 76.8 76.8 76.8 76.8-34.381 76.8-76.8-34.381-76.8-76.8-76.8zM102.4 422.4l435.2 435.2h-64c-21.12 0-50.611-12.211-65.562-27.162l-380.902-380.902c-14.925-14.925-14.925-39.373 0-54.298l329.702-329.702c14.925-14.925 39.373-14.925 54.298 0l24.038 24.038-332.8 332.8z" />
<glyph unicode="&#xe628;" d="M296.992 691.008q-27.008-0.992-52.992-0.992h-83.008q-18.016 0-36.512-6.016t-32.512-18.496-23.008-32-8.992-45.504v-76h912v40.992q0 16-0.512 30.016t-0.512 18.016q0 12.992-4.992 28.992t-16.992 29.504-31.488 22.496-49.504 8.992h-132.992v-96.992h-438.016v96.992zM971.008 457.984v-52q0-23.008 0.512-52t0.512-58.016-10.496-47.488-26.016-30.016-32.992-16-31.488-4.512q-14.016-0.992-29.504-0.512t-29.504 0.512h-32l-44.992 128h-439.008l-44-128h-63.008q-20 0-44.992 0.992-24.992 0-40.992 9.504t-25.504 23.008-13.504 29.504-4 30.016v167.008h911.008zM179.008 395.008q-12 0-20.992-8.512t-8.992-21.504 8.992-21.504 20.992-8.512q12.992 0 22.016 8.512t8.992 21.504-8.992 21.504-22.016 8.512zM332 271.008q-8-26.016-14.016-48-4.992-19.008-10.496-36.992t-7.488-24.992-3.008-15.008 0.992-14.496 9.504-10.496 21.504-4h364.992q23.008 0 34.016 12t2.016 38.016q-4.992 12.992-9.504 30.496t-9.504 34.496q-4.992 19.008-11.008 39.008h-368zM352 645.984v228q0 11.008 2.496 23.008t10.016 21.504 20.512 15.488 34.016 6.016h188q31.008 0 51.488-14.496t20.512-52.512v-227.008h-327.008z" />
<glyph unicode="&#xe629;" d="M544 960l-96-96 96-96-224-256h-224l176-176-272-360.608v-39.392h39.392l360.608 272 176-176v224l256 224 96-96 96 96-480 480zM448 416l-64 64 224 224 64-64-224-224z" />
<glyph unicode="&#xe62a;" d="M224.992 512c123.712 0 224-100.288 224-224s-100.288-224-224-224-224 100.288-224 224l-0.992 32c0 247.424 200.576 448 448 448v-128c-85.472 0-165.824-33.28-226.272-93.728-11.648-11.648-22.24-24.032-31.84-37.024 11.424 1.792 23.168 2.752 35.104 2.752zM800.992 512c123.712 0 224-100.288 224-224s-100.288-224-224-224-224 100.288-224 224l-0.992 32c0 247.424 200.576 448 448 448v-128c-85.472 0-165.824-33.28-226.272-93.728-11.648-11.648-22.24-24.032-31.84-37.024 11.456 1.792 23.168 2.752 35.104 2.752z" />
<glyph unicode="&#xe62b;" d="M800 320c-123.712 0-224 100.288-224 224s100.288 224 224 224 224-100.288 224-224l0.992-32c0-247.424-200.576-448-448-448v128c85.472 0 165.824 33.28 226.272 93.728 11.648 11.648 22.24 24 31.84 37.024-11.424-1.792-23.168-2.752-35.104-2.752zM224 320c-123.712 0-224 100.288-224 224s100.288 224 224 224 224-100.288 224-224l0.992-32c0-247.424-200.576-448-448-448v128c85.472 0 165.824 33.28 226.272 93.728 11.648 11.648 22.24 24 31.84 37.024-11.424-1.792-23.168-2.752-35.104-2.752z" />
<glyph unicode="&#xe62c;" d="M930.016 132q28-32.992 31.008-57.504t-19.008-48.512q-24-28-54.016-26.016t-58.016 24l-172 166.016q-46.016-30.016-98.496-46.496t-110.496-16.512q-80 0-150.016 30.496t-122.016 82.496-82.016 122.016-30.016 149.504 30.016 149.504 82.016 122.016 122.016 82.016 149.504 30.016 149.504-30.016 122.016-82.016 82.496-122.016 30.496-150.016q0-60-17.504-114.016t-49.504-100.992l34.016-32.992q24-24.992 51.488-51.488t50.016-50.016 28.512-29.504zM452.512 255.008q53.504 0 100.512 20t82.016 55.008 55.008 82.016 20 100.512-20 100.512-55.008 82.016-82.016 55.008-100.512 20-100.512-20-81.504-55.008-54.496-82.016-20-100.512 20-100.512 54.496-82.016 81.504-55.008 100.512-20z" />
<glyph unicode="&#xe62d;" d="M1016.992 353.984q2.016-12-0.992-29.504t-10.496-35.488-17.504-32.512-22.496-20.512-21.504-6.016-20 4q-11.008 3.008-26.016 5.504t-31.008 0.992-32-6.496-27.008-16.992q-24.992-26.016-28.992-59.008t8.992-62.016q11.008-20.992-3.008-40.992-6.016-8-19.008-16.992t-28.992-16-33.504-11.008-30.496-4q-8.992 0-17.504 7.008t-11.488 15.008h-0.992q-11.008 32-38.016 55.008t-63.008 23.008q-35.008 0-63.008-23.008t-40-54.016q-4.992-12-15.008-17.504t-23.008-5.504q-14.016 0-32 4.992t-36 12.512-32 18.016-20.992 20.512q-6.016 7.008-6.496 16.992t8.512 27.008q11.008 24 8.512 54.016t-26.496 56q-14.016 15.008-34.496 19.488t-39.488 3.488q-20.992-0.992-44-8-14.016-4-28 2.016-12 4-21.504 19.008t-16.992 32.992-12 36.992-1.504 31.008q3.008 22.016 20 28 31.008 12.992 55.488 40.992t24.512 63.008q0 36-24.512 62.496t-55.488 38.496q-8.992 3.008-15.008 15.008t-6.016 24q0 12.992 4 29.504t10.496 32 15.008 28.512 19.488 19.008q8 4.992 15.488 4t16.512-4q31.008-12.992 64.512-8t58.496 28.992q12.992 12.992 18.496 30.496t7.008 35.008 0 32-2.496 20.512q-2.016 6.016-3.488 14.496t1.504 14.496q6.016 14.016 22.016 24.512t34.496 18.016 35.488 11.008 28 3.488q12.992 0 20.512-8.512t10.496-18.496q12-27.008 37.504-48t60.512-20.992 63.008 20 39.008 50.016q4 8.992 12.992 17.504t18.016 8.512q14.016 0 31.008-4t33.504-11.488 30.016-18.496 21.504-24q6.016-8.992 4-18.496t-4.992-13.504q-12.992-30.016-8-62.496t30.016-56.992 60.512-27.488 66.496 12q8 4.992 20 4t20-8.992q15.008-15.008 27.008-44t16-59.008q2.016-16.992-5.504-27.008t-16.512-12.992q-31.008-11.008-53.504-39.008t-22.496-64q0-35.008 18.496-60.992t49.504-36.992q7.008-4.992 12-8.992 12-8.992 16-23.008zM540.992 261.984q46.016 0 87.008 16.992t71.008 48 47.488 71.488 17.504 86.496-17.504 86.496-47.488 70.496-71.008 47.488-87.008 17.504-86.496-17.504-71.008-47.488-48-70.496-17.504-86.496 17.504-86.496 48-71.488 71.008-48 86.496-16.992z" />
<glyph unicode="&#xe62e;" d="M256 320c0 0 58.816 192 384 192v-192l384 256-384 256v-192c-256 0-384-159.68-384-320zM704 192h-576v384h125.888c10.080 11.904 20.928 23.328 32.48 34.176 43.968 41.184 96.576 72.64 156.128 93.824h-442.464v-640h832v268.64l-128-85.344v-55.296z" />
<glyph unicode="&#xe62f;" d="M448 384v-416l-160 160-192-192-96 96 192 192-160 160zM1024 864l-192-192 160-160h-416v416l160-160 192 192z" />
<glyph unicode="&#xe630;" d="M1024 562.944l-353.792 51.424-158.208 320.576-158.208-320.576-353.792-51.424 256-249.536-60.448-352.352 316.448 166.368 316.448-166.368-60.448 352.352 256 249.536z" />
<glyph unicode="&#xe631;" d="M508 908q95.008 0 179.008-36.512t146.016-98.496 98.496-145.504 36.512-178.496-36.512-179.008-98.496-146.016-146.016-98.496-179.008-36.512-178.496 36.512-145.504 98.496-98.496 146.016-36.512 179.008 36.512 178.496 98.496 145.504 145.504 98.496 178.496 36.512zM736 387.008q31.008 0 55.488 15.488t24.512 47.488q0 31.008-24.512 45.504t-55.488 14.496h-452q-31.008 0-56.512-14.496t-25.504-45.504q0-32 25.504-47.488t56.512-15.488h452z" />
<glyph unicode="&#xe632;" d="M514.016 897.984q92.992 0 175.488-35.488t144-96.992 96.992-144 35.488-175.488q0-94.016-35.488-176t-96.992-143.488-144-96.992-175.488-35.488q-94.016 0-176.512 35.488t-144 96.992-96.992 143.488-35.488 176q0 92.992 35.488 175.488t96.992 144 144 96.992 176.512 35.488zM772 383.008q27.008 0 45.504 19.008t18.496 46.016-18.496 44.992-45.504 18.016h-192v192.992q0 27.008-19.008 46.016t-46.016 19.008-44.992-19.008-18.016-46.016v-192.992h-192.992q-27.008 0-44.992-18.016t-18.016-44.992 18.016-46.016 44.992-19.008h192.992v-191.008q0-27.008 18.016-46.016t44.992-19.008 46.016 19.008 19.008 46.016v191.008h192z" />
<glyph unicode="&#xe633;" d="M946.016 644.992q22.016-16.992 38.016-35.008t16-35.008q0-20-14.496-32t-36.512-28q-32-24-68.512-51.008t-68.992-51.008-57.504-42.016-36-24q-32.992-20.992-51.488-15.008t-23.488 22.016v119.008h-4q-78.016 0-136-16.992t-102.016-51.488-76.992-84.992-59.008-116.512q-3.008 2.016-6.016 11.008-2.016 8-4 23.488t-2.016 42.496q0 86.016 26.496 160.512t75.008 130.496 117.504 87.488 154.016 30.496q6.016 0 9.504-0.512t8.512-0.512l-0.992 107.008q2.016 28.992 23.488 42.016t53.504-11.008q11.008-8 38.016-29.504t60.512-48 68.512-54.496 59.008-48.992zM776 260.992q32.992 0 47.008-19.008t14.016-55.008v-132.992q0-52-29.504-85.504t-78.496-32.512l-612 4q-23.008 0-44.512 9.504t-38.496 26.016-27.488 40-10.496 53.504v592q0 50.016 30.016 83.488t84 32.512l208-2.016q11.008 0 23.488-2.496t22.016-9.504 16-19.008 6.496-30.016-7.008-29.504-19.008-19.008-25.504-11.488-26.496-4l-98.016 0.992q-40 0-62.496-24.992t-22.496-60.992v-404.992q0-22.016 7.488-39.008t20.512-28.992 28.512-18.496 32.512-6.496l416.992-4q35.008-0.992 56 23.488t20.992 62.496v44q0 31.008 19.008 49.504t48.992 18.496z" />
<glyph unicode="&#xe634;" d="M820 300q-8 0-14.016 6.016l-279.008 274.016-278.016-274.016q-7.008-6.016-15.008-6.016t-14.016 6.016-6.016 14.496 6.016 14.496l292.992 288q6.016 6.016 14.496 6.016t13.504-6.016l292.992-288q6.016-6.016 6.496-14.496t-5.504-14.496-15.008-6.016z" />
<glyph unicode="&#xe635;" d="M576 253.376v52.768c70.496 39.712 128 138.784 128 237.824 0 159.072 0 288-192 288s-192-128.928-192-288c0-99.072 57.504-198.112 128-237.824v-52.768c-217.088-17.76-384-124.416-384-253.376h896c0 128.96-166.912 235.648-384 253.376z" />
<glyph unicode="&#xe636;" d="M1004.992 145.984l-403.008 710.016q-36.992 66.016-89.504 66.016t-89.504-66.016l-402.016-710.016q-36.992-64.992-10.496-111.488t99.488-46.496h804.992q74.016 0 100.512 46.496t-10.496 111.488zM544.992 116h-64v63.008h64v-63.008zM544.992 307.008h-64v382.016h64v-382.016z" />
<glyph unicode="&#xe637;" d="M992.256 88.608l-242.56 206.304c-25.088 22.56-51.904 32.928-73.568 31.936 57.248 67.072 91.84 154.080 91.84 249.184 0 212.064-171.936 384-384 384s-384-171.936-384-384 171.936-384 384-384c95.104 0 182.112 34.592 249.184 91.84-0.992-21.664 9.376-48.48 31.936-73.568l206.304-242.56c35.328-39.232 93.024-42.56 128.224-7.36s31.904 92.896-7.36 128.224zM384 320c-141.376 0-256 114.624-256 256s114.624 256 256 256 256-114.624 256-256-114.624-256-256-256zM448 768h-128v-128h-128v-128h128v-128h128v128h128v128h-128z" />
<glyph unicode="&#xe638;" d="M992.256 88.608l-242.56 206.304c-25.088 22.56-51.904 32.928-73.568 31.936 57.248 67.072 91.84 154.080 91.84 249.184 0 212.064-171.936 384-384 384s-384-171.936-384-384 171.936-384 384-384c95.104 0 182.112 34.592 249.184 91.84-0.992-21.664 9.376-48.48 31.936-73.568l206.304-242.56c35.328-39.232 93.024-42.56 128.224-7.36s31.904 92.896-7.36 128.224zM384 320c-141.376 0-256 114.624-256 256s114.624 256 256 256 256-114.624 256-256-114.624-256-256-256zM192 640h384v-128h-384z" />
</font>
</defs>
</svg>
